HIERARCHY
ROOT Hips
{
  OFFSET 54.3241 96.8584 11.8958
  CHANNELS 6 Xposition Yposition Zposition Zrotation Xrotation Yrotation
  JOINT spine
  {
    OFFSET 0 7.96568 0.458067
    CHANNELS 3 Zrotation Xrotation Yrotation
    JOINT spine1
    {
      OFFSET 0 10.2431 0
      CHANNELS 3 Zrotation Xrotation Yrotation
      JOINT spine2
      {
        OFFSET 0 9.81475 0
        CHANNELS 3 Zrotation Xrotation Yrotation
        JOINT Neck
        {
          OFFSET 0 25.1986 1.20138
          CHANNELS 3 Zrotation Xrotation Yrotation
          JOINT Head
          {
            OFFSET 0 7.61315 0
            CHANNELS 3 Zrotation Xrotation Yrotation
            End Site
            {
              OFFSET 0 18.4281 -6.07733
            }
          }
        }
        JOINT RightShoulder
        {
          OFFSET -4.1327 10.5992 -0.575451
          CHANNELS 3 Zrotation Xrotation Yrotation
          JOINT RightArm
          {
            OFFSET 0 13.9018 0
            CHANNELS 3 Zrotation Xrotation Yrotation
            JOINT RightArmRoll
            {
              OFFSET 0 7.01789 0
              CHANNELS 3 Zrotation Xrotation Yrotation
              JOINT RightForeArm
              {
                OFFSET 0 20.4406 0
                CHANNELS 3 Zrotation Xrotation Yrotation
                JOINT RightForeArmRoll
                {
                  OFFSET 0 7.87516 0
                  CHANNELS 3 Zrotation Xrotation Yrotation
                  JOINT RightHand
                  {
                    OFFSET 0 15.8037 0
                    CHANNELS 3 Zrotation Xrotation Yrotation
                    End Site
                    {
                      OFFSET 0 0 0
                    }
                  }
                }
              }
            }
          }
        }
        JOINT LeftShoulder
        {
          OFFSET 4.1327 10.5992 -0.575451
          CHANNELS 3 Zrotation Xrotation Yrotation
          JOINT LeftArm
          {
            OFFSET 0 13.9018 0
            CHANNELS 3 Zrotation Xrotation Yrotation
            JOINT LeftArmRoll
            {
              OFFSET 0 7.01789 0
              CHANNELS 3 Zrotation Xrotation Yrotation
              JOINT LeftForeArm
              {
                OFFSET 0 20.4406 0
                CHANNELS 3 Zrotation Xrotation Yrotation
                JOINT LeftForeArmRoll
                {
                  OFFSET 0 7.87516 0
                  CHANNELS 3 Zrotation Xrotation Yrotation
                  JOINT LeftHand
                  {
                    OFFSET 0 15.8037 0
                    CHANNELS 3 Zrotation Xrotation Yrotation
                    End Site
                    {
                      OFFSET 0 0 0
                    }
                  }
                }
              }
            }
          }
        }
      }
    }
  }
  JOINT RightUpLeg
  {
    OFFSET -7.06048 -1.2947 -1.0861
    CHANNELS 3 Zrotation Xrotation Yrotation
    JOINT RightUpLegRoll
    {
      OFFSET 0 18.5308 0
      CHANNELS 3 Zrotation Xrotation Yrotation
      JOINT RightLeg
      {
        OFFSET 0 -22.9476 0
        CHANNELS 3 Zrotation Xrotation Yrotation
        JOINT RightLegRoll
        {
          OFFSET 0 23.0226 0
          CHANNELS 3 Zrotation Xrotation Yrotation
          JOINT RightFoot
          {
            OFFSET 0 19.1625 0
            CHANNELS 3 Zrotation Xrotation Yrotation
            JOINT RightToeBase
            {
              OFFSET 0 16.0188 0
              CHANNELS 3 Zrotation Xrotation Yrotation
              End Site
              {
                OFFSET 0.00678979 7.75782 -0.894206
              }
            }
          }
        }
      }
    }
  }
  JOINT LeftUpLeg
  {
    OFFSET 7.06048 -1.2947 -1.0861
    CHANNELS 3 Zrotation Xrotation Yrotation
    JOINT LeftUpLegRoll
    {
      OFFSET 0 18.5309 0
      CHANNELS 3 Zrotation Xrotation Yrotation
      JOINT LeftLeg
      {
        OFFSET 0 22.9475 0
        CHANNELS 3 Zrotation Xrotation Yrotation
        JOINT LeftLegRoll
        {
          OFFSET 0 23.2355 0
          CHANNELS 3 Zrotation Xrotation Yrotation
          JOINT LeftFoot
          {
            OFFSET 0 18.9496 0
            CHANNELS 3 Zrotation Xrotation Yrotation
            JOINT LeftToeBase
            {
              OFFSET 0 16.0188 0
              CHANNELS 3 Zrotation Xrotation Yrotation
              End Site
              {
                OFFSET -0.0304289 7.75782 -0.894206
              }
            }
          }
        }
      }
    }
  }
}
MOTION
Frames: 10
Frame Time: 0.00208333
55.2066 96.9449 7.91346 -0.676114 -3.8174 2.89497 0.223038 -0.438324 -0.31735 0.447374 3.12487 -0.660972 0.455881 4.76987 -0.669097 -6.12359 6.49954 -2.6337 9.90034 13.2072 -4.17003 74.7347 -4.58305 -3.86794 92.5433 19.0693 19.5736 -3.84939e-006 -5.325e-006 -2.8489e-006 1.41044 6.00637 -1.01016 -1.32015e-007 -6.15672e-006 -3.00723 8.0301 -4.9514 0.697651 -63.1443 -0.353443 0.741534 -106.259 17.3439 -2.73108 -8.50288e-007 3.28024e-006 -2.07587e-007 -8.92291 4.23947 1.01981 7.84577e-006 -3.11694e-006 2.99999 -8.02902 -4.95144 -0.697661 177.529 0.698314 2.30382 180 7.01544e-015 178.912 178.405 6.39287 179.652 -5.35018e-007 -4.00495e-006 0.0959245 -19.1624 68.5207 19.9877 8.13649 25.2327 -3.48774 -176.028 -3.33646 -1.7847 4.54188e-006 -4.6773e-006 -1.13705 -3.23564 -5.47969 -0.0582307 1.00122e-006 -7.81839e-006 -0.0793476 18.9417 68.3215 -19.7929 -8.13649 25.2327 3.48774 
55.2022 96.9422 7.9262 -0.673858 -3.80909 2.92371 0.224566 -0.439514 -0.31631 0.450496 3.12249 -0.658081 0.458973 4.76749 -0.666256 -6.11708 6.5275 -2.63225 9.93954 13.1769 -4.16616 74.6845 -4.61934 -3.88117 92.5621 18.8553 19.7176 -3.84939e-006 -5.325e-006 -2.8489e-006 1.3211 6.23884 -1.00608 -1.32015e-007 -6.15672e-006 -3.00723 8.0301 -4.9514 0.697651 -63.1701 -0.336409 0.734971 -106.214 17.2032 -2.78988 -8.50288e-007 3.28024e-006 -2.07587e-007 -8.91681 4.40398 1.03484 7.84577e-006 -3.11694e-006 2.99999 -8.02902 -4.95144 -0.697661 177.534 0.697852 2.29973 180 7.01544e-015 178.912 178.407 6.38985 179.651 -5.35018e-007 -4.00495e-006 0.0959258 -19.1615 68.5196 19.9868 8.13649 25.2327 -3.48774 -176.023 -3.3305 -1.78462 4.54188e-006 -4.6773e-006 -1.13705 -3.23299 -5.4762 -0.057767 1.00122e-006 -7.81839e-006 -0.0793476 18.9403 68.3198 -19.7914 -8.13649 25.2327 3.48774 
55.2055 96.947 7.93794 -0.67156 -3.80081 2.95304 0.226186 -0.440672 -0.315229 0.453839 3.12017 -0.655084 0.462283 4.76517 -0.663312 -6.11209 6.55423 -2.63112 9.98059 13.1474 -4.16302 74.6334 -4.65584 -3.89442 92.5819 18.6395 19.8604 -3.84939e-006 -5.325e-006 -2.8489e-006 1.23295 6.47265 -1.0025 -1.32015e-007 -6.15672e-006 -3.00723 8.0301 -4.9514 0.697651 -63.1972 -0.318861 0.728289 -106.167 17.0612 -2.84958 -8.50288e-007 3.28024e-006 -2.07587e-007 -8.9111 4.57065 1.05012 7.84577e-006 -3.11694e-006 2.99999 -8.02902 -4.95144 -0.697661 177.54 0.696971 2.29552 180 7.01544e-015 178.912 178.41 6.38639 179.651 -5.35018e-007 -4.00495e-006 0.0959278 -19.1606 68.5186 19.9858 8.13649 25.2327 -3.48774 -176.019 -3.32448 -1.78449 4.54188e-006 -4.6773e-006 -1.13705 -3.2303 -5.47278 -0.0572945 1.00122e-006 -7.81839e-006 -0.0793476 18.939 68.3184 -19.79 -8.13649 25.2327 3.48774 
55.1867 96.9468 7.93156 -0.669236 -3.79256 2.98279 0.22787 -0.441809 -0.31412 0.457335 3.11789 -0.652013 0.465747 4.76289 -0.660296 -6.10815 6.5801 -2.63022 10.0229 13.1185 -4.16039 74.5816 -4.69248 -3.9077 92.6027 18.4225 20.0021 -3.84939e-006 -5.325e-006 -2.8489e-006 1.14563 6.70742 -0.999267 -1.32015e-007 -6.15672e-006 -3.00723 8.0301 -4.9514 0.697651 -63.2254 -0.300952 0.721524 -106.119 16.9182 -2.90989 -8.50288e-007 3.28024e-006 -2.07587e-007 -8.90568 4.73883 1.06557 7.84577e-006 -3.11694e-006 2.99999 -8.02902 -4.95144 -0.697661 177.545 0.695797 2.29124 180 7.01544e-015 178.912 178.412 6.38257 179.65 -5.35018e-007 -4.00495e-006 0.0959303 -19.1597 68.5177 19.9849 8.13649 25.2327 -3.48774 -176.015 -3.31842 -1.78433 4.54188e-006 -4.6773e-006 -1.13705 -3.22758 -5.4694 -0.056816 1.00122e-006 -7.81839e-006 -0.0793476 18.9378 68.317 -19.7888 -8.13649 25.2327 3.48774 
55.1756 96.9472 7.94405 -0.666901 -3.78432 3.01278 0.22959 -0.442933 -0.312994 0.46092 3.11564 -0.648899 0.469298 4.76064 -0.65724 -6.10483 6.60548 -2.62945 10.066 13.09 -4.15806 74.5294 -4.7292 -3.92099 92.6245 18.2049 20.1434 -3.84939e-006 -5.325e-006 -2.8489e-006 1.05879 6.94272 -0.996242 -1.32015e-007 -6.15672e-006 -3.00723 8.0301 -4.9514 0.697651 -63.2541 -0.282838 0.714711 -106.07 16.7747 -2.97051 -8.50288e-007 3.28024e-006 -2.07587e-007 -8.90048 4.90787 1.08113 7.84577e-006 -3.11694e-006 2.99999 -8.02902 -4.95144 -0.697661 177.55 0.694455 2.2869 180 7.01544e-015 178.912 178.415 6.37859 179.65 -5.35018e-007 -4.00495e-006 0.095933 -19.1589 68.5167 19.984 8.13649 25.2327 -3.48774 -176.011 -3.31233 -1.78416 4.54188e-006 -4.6773e-006 -1.13705 -3.22484 -5.46605 -0.056334 1.00122e-006 -7.81839e-006 -0.0793476 18.9367 68.3157 -19.7876 -8.13649 25.2327 3.48774 
55.17 96.948 7.95918 -0.66457 -3.77608 3.04283 0.23132 -0.444054 -0.311865 0.464527 3.11339 -0.645775 0.472871 4.75839 -0.654172 -6.10165 6.63074 -2.62871 10.1093 13.0615 -4.1558 74.4771 -4.76594 -3.93429 92.6474 17.9874 20.2844 -3.84939e-006 -5.325e-006 -2.8489e-006 0.972042 7.17816 -0.993279 -1.32015e-007 -6.15672e-006 -3.00723 8.0301 -4.9514 0.697651 -63.283 -0.264672 0.707886 -106.022 16.631 -3.03115 -8.50288e-007 3.28024e-006 -2.07587e-007 -8.8954 5.07713 1.09672 7.84577e-006 -3.11694e-006 2.99999 -8.02902 -4.95144 -0.697661 177.555 0.693071 2.28256 180 7.01544e-015 178.912 178.418 6.37455 179.65 -5.35018e-007 -4.00495e-006 0.0959357 -19.158 68.5157 19.9831 8.13649 25.2327 -3.48774 -176.006 -3.30623 -1.78398 4.54188e-006 -4.6773e-006 -1.13705 -3.2221 -5.46271 -0.0558511 1.00122e-006 -7.81839e-006 -0.0793476 18.9356 68.3144 -19.7864 -8.13649 25.2327 3.48774 
55.1617 96.9412 7.96715 -0.662257 -3.76784 3.07276 0.233032 -0.445181 -0.310743 0.46809 3.11113 -0.642672 0.476401 4.75613 -0.651126 -6.09818 6.65624 -2.62791 10.1522 13.0329 -4.1534 74.4249 -4.80263 -3.94759 92.6714 17.7705 20.4256 -3.84939e-006 -5.325e-006 -2.8489e-006 0.885023 7.41333 -0.990233 -1.32015e-007 -6.15672e-006 -3.00723 8.0301 -4.9514 0.697651 -63.3116 -0.246609 0.701086 -105.975 16.4875 -3.09153 -8.50288e-007 3.28024e-006 -2.07587e-007 -8.89035 5.24595 1.11229 7.84577e-006 -3.11694e-006 2.99999 -8.02902 -4.95144 -0.697661 177.56 0.691771 2.27824 180 7.01544e-015 178.912 178.421 6.37062 179.649 -5.35018e-007 -4.00495e-006 0.0959384 -19.1572 68.5148 19.9822 8.13649 25.2327 -3.48774 -176.002 -3.30014 -1.78381 4.54188e-006 -4.6773e-006 -1.13705 -3.21936 -5.45935 -0.05537 1.00122e-006 -7.81839e-006 -0.0793476 18.9345 68.3131 -19.7852 -8.13649 25.2327 3.48774 
55.1554 96.9434 7.96408 -0.659977 -3.75957 3.10239 0.234698 -0.446324 -0.309642 0.471543 3.10884 -0.639622 0.479822 4.75384 -0.648131 -6.09394 6.68236 -2.62695 10.1941 13.0039 -4.15063 74.3732 -4.83923 -3.96087 92.6965 17.5549 20.5675 -3.84939e-006 -5.325e-006 -2.8489e-006 0.797357 7.64783 -0.986958 -1.32015e-007 -6.15672e-006 -3.00723 8.0301 -4.9514 0.697651 -63.3395 -0.228803 0.694345 -105.928 16.3448 -3.15136 -8.50288e-007 3.28024e-006 -2.07587e-007 -8.88525 5.41369 1.12777 7.84577e-006 -3.11694e-006 2.99999 -8.02902 -4.95144 -0.697661 177.565 0.690681 2.27397 180 7.01544e-015 178.912 178.423 6.3669 179.649 -5.35018e-007 -4.00495e-006 0.0959407 -19.1563 68.5138 19.9812 8.13649 25.2327 -3.48774 -175.998 -3.29409 -1.78366 4.54188e-006 -4.6773e-006 -1.13705 -3.21665 -5.45596 -0.0548932 1.00122e-006 -7.81839e-006 -0.0793476 18.9333 68.3117 -19.7839 -8.13649 25.2327 3.48774 
55.1352 96.9452 7.97389 -0.657745 -3.75128 3.13154 0.23629 -0.447491 -0.308573 0.474822 3.1065 -0.636657 0.483068 4.7515 -0.645218 -6.0885 6.70946 -2.62573 10.2347 12.9741 -4.14729 74.3223 -4.87565 -3.97413 92.7228 17.3412 20.7102 -3.84939e-006 -5.325e-006 -2.8489e-006 0.708668 7.88124 -0.983308 -1.32015e-007 -6.15672e-006 -3.00723 8.0301 -4.9514 0.697651 -63.3662 -0.211408 0.687699 -105.884 16.2032 -3.21034 -8.50288e-007 3.28024e-006 -2.07587e-007 -8.87998 5.5797 1.14308 7.84577e-006 -3.11694e-006 2.99999 -8.02902 -4.95144 -0.697661 177.57 0.689925 2.2698 180 7.01544e-015 178.912 178.426 6.36357 179.648 -5.35018e-007 -4.00495e-006 0.0959425 -19.1554 68.5128 19.9803 8.13649 25.2327 -3.48774 -175.993 -3.28809 -1.78355 4.54188e-006 -4.6773e-006 -1.13705 -3.21397 -5.45252 -0.0544234 1.00122e-006 -7.81839e-006 -0.0793476 18.932 68.3102 -19.7825 -8.13649 25.2327 3.48774 
55.1272 96.9451 7.99881 -0.655575 -3.74295 3.16003 0.237782 -0.448694 -0.307549 0.477858 3.10409 -0.633809 0.486074 4.74909 -0.642418 -6.0814 6.73792 -2.62415 10.2732 12.9434 -4.14313 74.2723 -4.91185 -3.98737 92.7502 17.13 20.8544 -3.84939e-006 -5.325e-006 -2.8489e-006 0.618578 8.11317 -0.979137 -1.32015e-007 -6.15672e-006 -3.00723 8.0301 -4.9514 0.697651 -63.3913 -0.19458 0.681185 -105.842 16.0631 -3.2682 -8.50288e-007 3.28024e-006 -2.07587e-007 -8.87448 5.74333 1.15815 7.84577e-006 -3.11694e-006 2.99999 -8.02902 -4.95144 -0.697661 177.576 0.689631 2.26575 180 7.01544e-015 178.912 178.428 6.36074 179.648 -5.35018e-007 -4.00495e-006 0.0959436 -19.1545 68.5117 19.9793 8.13649 25.2327 -3.48774 -175.989 -3.28216 -1.78348 4.54188e-006 -4.6773e-006 -1.13705 -3.21134 -5.449 -0.0539632 1.00122e-006 -7.81839e-006 -0.0793476 18.9305 68.3085 -19.7809 -8.13649 25.2327 3.48774 
